# xmcd
#
# Track frame offsets:
#	150
#	11287
#	26534
#	40908
#	53292
#	70692
#	81136
#	95584
#	109426
#	125776
#
# Disc length: 1784 seconds
#
# Revision: 5
# Processed by: cddbd v1.5.2PL0 Copyright (c) Steve Scherf et al.
# Submitted via: EZCDAudioConverter 7.1.5.1
#
DISCID=7806f60a
DTITLE=Lee Greenwood - American Patriot
DYEAR=2007
DGENRE=Country
TTITLE0=Pledge Of Allegiance
TTITLE1=America
TTITLE2=God Bless The U.S.A.
TTITLE3=This Land Is Your Land
TTITLE4=The Battle Hymn Of The Republic
TTITLE5=God Bless America
TTITLE6=Dixie
TTITLE7=The Great Defenders
TTITLE8=America The Beautiful
TTITLE9=Star Spangled Banner
EXTD=
EXTT0=
EXTT1=
EXTT2=
EXTT3=
EXTT4=
EXTT5=
EXTT6=
EXTT7=
EXTT8=
EXTT9=
PLAYORDER=
